<svg version="1.1" id="Layer_1" xmlns="http://www.w3.org/2000/svg" xmlns:xlink="http://www.w3.org/1999/xlink" x="0px" y="0px"
	 width="100%" viewBox="0 0 512 512" enable-background="new 0 0 512 512" xml:space="preserve">
<path fill="#EA4235" opacity="1.000000" stroke="none"
	d="
M457.618561,341.760834
	C439.626495,350.952515 420.667755,353.933716 401.282532,351.783051
	C382.499451,349.699249 365.640808,342.325562 351.031067,329.723083
	C337.376678,317.944672 327.371704,303.830750 322.150818,286.782593
	C315.218201,264.144928 315.921722,241.509766 325.207703,219.446991
	C334.264160,197.929581 349.182373,181.546906 370.168182,171.582855
	C399.435211,157.686890 429.213837,157.577194 458.097870,172.729080
	C484.555298,186.608017 501.342651,208.939880 506.644562,238.137802
	C511.963562,267.429749 506.044678,294.803314 486.286835,318.396545
	C478.230438,328.016815 468.496124,335.195099 457.618561,341.760834
M434.179657,310.931549
	C436.238495,309.925781 438.334808,308.989532 440.350464,307.903595
	C463.307434,295.535919 475.392670,269.000824 469.704712,244.694290
	C461.742706,210.669785 425.728394,190.556320 393.345001,202.704849
	C366.591888,212.741165 349.859711,241.795578 356.276733,269.141296
	C364.384308,303.691162 400.057404,323.974426 434.179657,310.931549
z"/>
<path fill="#FABC05" opacity="1.000000" stroke="none"
	d="
M241.000153,234.000366
	C256.136292,234.000366 270.772430,234.000366 285.703339,234.000366
	C285.703339,247.685394 285.703339,261.077911 285.703339,274.946594
	C263.918854,274.946594 242.190536,274.946594 220.234131,274.946594
	C220.234131,286.359283 220.234131,297.301300 220.234131,308.719482
	C241.850800,308.719482 263.579041,308.719482 285.652283,308.719482
	C285.652283,322.580322 285.652283,335.973999 285.652283,349.685303
	C249.355576,349.685303 212.967606,349.685303 176.289368,349.685303
	C176.289368,286.308990 176.289368,222.926529 176.289368,159.272003
	C212.732864,159.272003 249.120438,159.272003 285.754272,159.272003
	C285.754272,172.668655 285.754272,185.943802 285.754272,199.694595
	C264.172852,199.694595 242.445145,199.694595 220.359924,199.694595
	C220.359924,211.220398 220.359924,222.282043 220.359924,234.000366
	C226.977386,234.000366 233.738785,234.000366 241.000153,234.000366
z"/>
<path fill="#4385F5" opacity="1.000000" stroke="none"
	d="
M94.690308,210.194427
	C87.272232,204.631287 79.311523,201.834045 70.329216,201.981598
	C61.778244,202.122040 53.835228,208.354889 50.700993,216.506683
	C49.111423,220.640976 50.589592,223.035706 53.585300,224.803909
	C59.729893,228.430740 66.113716,231.650955 72.382401,235.069092
	C84.518089,241.686417 96.898224,247.903137 108.702431,255.067841
	C121.651604,262.927460 130.718552,274.652435 133.495331,289.465393
	C136.230713,304.057617 133.273148,318.132599 122.759682,329.781433
	C108.556702,345.518127 90.725639,351.952820 69.801056,352.123566
	C47.828526,352.302795 30.138544,343.699585 15.541650,327.931976
	C12.361082,324.496338 9.982384,320.330261 7.073578,316.626862
	C5.183804,314.220917 5.650383,312.852417 8.172938,311.210907
	C17.830742,304.926056 27.351149,298.430054 37.142857,291.865387
	C42.711201,300.490417 49.653351,307.366516 59.747711,310.302094
	C69.948074,313.268524 79.273361,313.106567 87.194191,304.421936
	C93.978180,296.983765 93.691727,291.788513 85.004723,287.046631
	C76.724655,282.526886 68.166916,278.513153 59.915955,273.943420
	C49.413708,268.126892 38.346188,262.956787 28.888042,255.722519
	C16.653069,246.364334 8.877576,233.994980 7.787955,217.520905
	C6.162955,192.952301 24.672764,174.427719 42.640320,167.305496
	C60.330242,160.293365 78.614990,159.397766 96.845337,165.947830
	C113.511642,171.935959 125.866173,183.165970 135.349045,197.847641
	C136.884033,200.224167 135.772293,201.521255 133.718307,202.870499
	C124.093346,209.193130 114.547562,215.636276 105.162750,221.909882
	C101.673309,217.988342 98.315186,214.214401 94.690308,210.194427
z"/>
</svg>